<?xml version="1.0" encoding="UTF-8" standalone="no"?>
<!-- Created with Inkscape (http://www.inkscape.org/) -->

<svg
   xmlns:dc="http://purl.org/dc/elements/1.1/"
   xmlns:cc="http://creativecommons.org/ns#"
   xmlns:rdf="http://www.w3.org/1999/02/22-rdf-syntax-ns#"
   xmlns:svg="http://www.w3.org/2000/svg"
   xmlns="http://www.w3.org/2000/svg"
   xmlns:sodipodi="http://sodipodi.sourceforge.net/DTD/sodipodi-0.dtd"
   xmlns:inkscape="http://www.inkscape.org/namespaces/inkscape"
   width="300.51181"
   height="314.85785"
   id="svg2"
   version="1.1"
   inkscape:version="0.48.0 r9654"
   sodipodi:docname="Salesian logo.svg">
  <defs
     id="defs4" />
  <sodipodi:namedview
     id="base"
     pagecolor="#ffffff"
     bordercolor="#666666"
     borderopacity="1.0"
     inkscape:pageopacity="0.0"
     inkscape:pageshadow="2"
     inkscape:zoom="0.24748737"
     inkscape:cx="57.739441"
     inkscape:cy="218.56782"
     inkscape:document-units="px"
     inkscape:current-layer="layer1"
     showgrid="false"
     inkscape:window-width="1280"
     inkscape:window-height="748"
     inkscape:window-x="-8"
     inkscape:window-y="-8"
     inkscape:window-maximized="1"
     fit-margin-top="0"
     fit-margin-left="0"
     fit-margin-right="0"
     fit-margin-bottom="0" />
  <metadata
     id="metadata7">
    <rdf:RDF>
      <cc:Work
         rdf:about="">
        <dc:format>image/svg+xml</dc:format>
        <dc:type
           rdf:resource="http://purl.org/dc/dcmitype/StillImage" />
        <dc:title />
      </cc:Work>
    </rdf:RDF>
  </metadata>
  <g
     inkscape:label="Layer 1"
     inkscape:groupmode="layer"
     id="layer1"
     transform="translate(-238.46866,-460.95869)">
    <g
       id="g3783"
       transform="matrix(0.75505478,0,0,0.75505478,132.02069,190.03256)">
      <path
         style="fill:#fefdfd"
         d="m 140.98046,567.31652 0,-208.5 199,0 199,0 0,208.5 0,208.5 -199,0 -199,0 0,-208.5 z"
         id="path3012"
         inkscape:connector-curvature="0" />
      <path
         style="fill:#fdbba6"
         d="m 397.39251,762.95932 c 0.39861,-0.64497 2.15648,-1.84441 3.90637,-2.66542 5.83676,-2.73848 20.29382,-13.44345 33.17107,-24.56205 13.75988,-11.88071 33.98987,-33.01484 37.05341,-38.70946 1.39227,-2.58799 3.48377,-6.2153 4.64779,-8.06069 3.84364,-6.09357 5.64,-18.03673 3.75662,-24.97616 -4.16814,-15.35782 -13.33638,-25.80382 -29.44727,-33.55128 -5.5,-2.64486 -11.68492,-5.62694 -13.74427,-6.62685 -2.74757,-1.33408 -3.94544,-1.50823 -4.5,-0.65424 -0.41565,0.64008 -0.98073,11.51378 -1.25573,24.16378 l -0.5,23 -17.36847,0.27412 c -11.9615,0.18879 -17.79856,-0.0828 -18.75,-0.87244 -1.11222,-0.92306 -1.38153,-6.34877 -1.38153,-27.833 0,-21.14193 -0.28739,-27.07945 -1.38326,-28.57815 -0.99543,-1.36133 -3.30854,-2.11574 -8.25,-2.69071 -3.77671,-0.43944 -9.56674,-1.26882 -12.86674,-1.84305 -3.3,-0.57423 -7.35,-1.13692 -9,-1.25042 l -3,-0.20635 -0.26491,30.4155 c -0.18042,20.71436 -0.62412,30.84832 -1.39112,31.7725 -0.88676,1.06848 -4.87009,1.29906 -18.73509,1.0845 l -17.60888,-0.2725 -0.5,-35.70118 c -0.30684,-21.90902 -0.88632,-36.0368 -1.5,-36.56993 -0.55,-0.47781 -4.375,-1.93593 -8.5,-3.24026 -9.48335,-2.99865 -16.81568,-7.72468 -20.00957,-12.89712 -1.36974,-2.21825 -2.94043,-3.89592 -3.49043,-3.72816 -0.63677,0.19423 -1,10.87545 -1,29.40625 l 0,29.10123 2.56308,2.81458 c 1.40969,1.54803 3.3187,3.93959 4.24224,5.31459 0.92354,1.375 3.25061,4.78597 5.17128,7.57994 4.4319,6.44704 6.3752,11.97575 7.15374,20.35251 0.54228,5.83471 0.31094,7.24992 -1.89758,11.60822 -4.35925,8.60256 -17.1527,19.32224 -37.73276,31.61641 -17.72907,10.59104 -33.81886,17.84292 -39.58819,17.84292 -1.18662,0 -5.25222,-2.51957 -9.03466,-5.59905 -6.88724,-5.60727 -27.37715,-26.2436 -27.37715,-27.57279 0,-0.38859 -1.8,-2.78626 -4,-5.32816 -2.2,-2.5419 -4,-4.97956 -4,-5.41702 0,-0.43746 -1.54719,-2.82166 -3.43819,-5.29824 -5.45514,-7.14438 -17.22209,-31.6173 -21.64416,-45.01556 -7.37049,-22.33157 -10.48123,-43.88442 -9.56664,-66.28265 0.33657,-8.24259 1.02277,-17.46153 1.52489,-20.48653 0.50213,-3.025 1.40655,-8.425 2.00984,-12 1.19336,-7.07171 4.27185,-17.78521 7.23693,-25.18538 1.03253,-2.57696 1.87733,-5.13911 1.87733,-5.69367 0,-1.06641 10.86096,-23.52321 13.84218,-28.62095 4.68418,-8.00972 9.32945,-14.46663 12.0616,-16.76558 4.67298,-3.93206 14.90999,-5.4152 26.91306,-3.89919 10.193,1.28741 11.10874,1.01446 11.18981,-3.33523 0.10469,-5.61722 7.26925,-15.98156 13.19281,-19.08486 14.92473,-7.81895 31.11309,-2.48378 38.92477,12.82838 3.29865,6.46589 2.94002,15.15237 -0.95197,23.05814 -7.44315,15.11918 -3.08792,12.00576 31.54652,-22.55166 19.23406,-19.1913 32.0577,-31.25 33.23232,-31.25 1.14718,0 10.44479,8.41715 23.23079,21.03089 31.78778,31.35949 44.52855,43.46911 45.73473,43.46911 1.9644,0 1.1306,-3.05799 -1.85647,-6.80864 -3.73803,-4.69359 -5.47521,-11.67738 -4.78849,-19.25066 0.94826,-10.45756 7.96319,-19.19724 18.11525,-22.56921 6.29691,-2.0915 10.96661,-2.0791 17.36502,0.0461 10.81409,3.59186 17.99414,13.54984 19.02441,26.38487 0.38977,4.85569 0.82701,6.17998 1.90399,5.7667 0.76892,-0.29506 4.6429,-1.24688 8.60885,-2.11516 3.96595,-0.86827 8.59277,-2.00063 10.28182,-2.51634 1.68905,-0.51572 6.24814,-0.93767 10.13131,-0.93767 6.981,0 7.09254,0.0421 9.929,3.74802 7.74493,10.11896 19.02714,30.64794 22.67104,41.25198 0.8505,2.475 2.31516,6.3 3.25481,8.5 1.92281,4.50186 4.9099,15.53715 7.03782,26 5.00035,24.58636 3.86532,61.72323 -2.59789,85 -0.61087,2.2 -1.5298,5.65375 -2.04207,7.67501 -1.87857,7.41227 -10.01408,27.07474 -13.9289,33.66437 -2.21437,3.72732 -4.02612,7.09913 -4.02612,7.49289 0,0.92301 -5.41777,9.05031 -12.72948,19.09574 -6.1493,8.44842 -24.59303,27.69565 -32.60341,34.02379 -16.25806,12.84374 -37.16958,24.95567 -53.16711,30.79435 -11.17591,4.07891 -11.94272,4.2792 -11.08799,2.89622 z M 245.75121,582.98435 c 0.14888,-11.09207 -0.0694,-20.1674 -0.48498,-20.1674 -1.5967,0 -24.28573,23.55957 -24.28573,25.21752 0,1.07731 1.82385,2.68523 4.75,4.18765 2.6125,1.34137 7.675,4.46253 11.25,6.93591 3.575,2.47339 6.95,4.38381 7.5,4.24539 0.61391,-0.15451 1.10452,-8.03808 1.27071,-20.41907 z m 43.22929,-17.89177 c 0,-5.22337 15.37433,-23.96047 24.29774,-29.61229 6.09609,-3.86108 6.69441,-6.265 6.69852,-26.91334 0.002,-10.3125 -0.32894,-18.75 -0.73554,-18.75 -0.4066,0 -8.2816,7.53254 -17.5,16.73897 l -16.76072,16.73897 0,21.67924 c 0,11.92359 0.29737,22.45418 0.66083,23.40133 0.61683,1.60745 0.74997,1.60017 2,-0.10934 0.73654,-1.00729 1.33917,-2.43538 1.33917,-3.17354 z M 210.48269,543.9858 c -0.66386,-0.66385 -4.50219,2.88313 -4.50219,4.16045 0,0.56063 1.12323,-0.0359 2.49606,-1.3256 1.37283,-1.2897 2.27559,-2.56539 2.00613,-2.83485 z M 367.9805,500.59534 c 0,-1.8637 -7.54914,-10.77839 -9.12736,-10.77839 -0.97054,0 -1.22396,15.31534 -0.26922,16.27009 1.18247,1.18247 9.39658,-3.61815 9.39658,-5.4917 z m -40.50728,-87.1297 c -15.86784,-7.38928 -20.70725,-27.47046 -10.00286,-41.50698 12.07877,-15.83873 35.59154,-14.04989 45.17138,3.43662 4.34727,7.93527 5.10449,13.579 2.80345,20.89461 -2.14611,6.82307 -8.62208,14.45665 -14.80249,17.44854 -6.14199,2.97328 -16.45967,2.85181 -23.16948,-0.27279 z"
         id="path3008"
         inkscape:connector-curvature="0" />
      <path
         style="fill:#f40725;fill-opacity:1"
         d="m 247.51024,670.46173 c -1.77904,-1.30087 -1.82463,-3.48538 -1.14774,-55 0.57254,-43.57209 0.46203,-53.646 -0.5885,-53.64889 -1.14106,-0.003 -18.00359,16.93221 -29.37018,29.49702 -2.24223,2.4786 -4.71723,4.49423 -5.5,4.47919 -2.06769,-0.0397 -24.92672,-22.16755 -24.92482,-24.12753 8.8e-4,-0.91018 4.1641,-5.76707 9.2516,-10.79308 5.0875,-5.02601 25.9,-25.66306 46.25,-45.8601 44.69764,-44.36169 96.20073,-94.57786 97.43064,-94.99613 0.49196,-0.1673 15.44632,14.05202 33.23191,31.59848 17.7856,17.54646 35.03745,34.30872 38.33745,37.24946 3.3,2.94075 22.98584,22.24643 43.74632,42.90153 24.77001,24.64429 37.74758,38.24936 37.75,39.57534 0.005,2.49946 -22.45331,23.97938 -25.07112,23.97938 -0.99122,0 -8.97204,-7.0875 -17.73516,-15.75 -8.76312,-8.6625 -16.15042,-15.75 -16.41623,-15.75 -0.26581,0 -0.81372,23.5125 -1.21757,52.25 -0.46933,33.39661 -1.10718,52.70104 -1.76771,53.5 -1.16675,1.41127 -32.35237,1.81423 -34.50587,0.44586 -1.33495,-0.84826 -1.853,-19.37302 -2.81571,-100.68614 l -0.5445,-45.99028 -11.71123,-12.03827 c -6.44117,-6.62104 -13.66821,-14.41059 -16.06009,-17.31009 -2.39188,-2.89951 -4.75788,-5.1355 -5.25778,-4.96886 -0.5321,0.17736 -1.08002,37.49653 -1.32165,90.01726 -0.227,49.34285 -0.70006,90.17919 -1.05123,90.7474 -0.97917,1.58433 -33.9971,1.38133 -35.27527,-0.21688 -1.30729,-1.63461 -2.44307,-120.72466 -1.46996,-154.12867 0.58164,-19.96567 0.46896,-24.97657 -0.57056,-25.37439 -0.73882,-0.28273 -8.47216,6.65332 -18,16.14425 l -16.70468,16.63996 0.0534,22.23443 c 0.0293,12.22893 0.0662,24.70942 0.0819,27.73442 0.0157,3.025 0.0757,17.875 0.13334,33 0.0577,15.125 0.24581,35.72811 0.41812,45.78469 0.26389,15.40086 0.0767,18.43453 -1.1867,19.23469 -2.46756,1.56278 -34.26763,1.23663 -36.47036,-0.37405 z M 243.9806,489.19164 c -7.31744,-1.88199 -12.6749,-5.75824 -17.3667,-12.56521 -3.23987,-4.70048 -3.88385,-6.47718 -3.97255,-10.95996 -0.34392,-17.38089 11.39662,-30.39972 27.33925,-30.3159 10.68255,0.0562 17.99506,4.48215 23.81606,14.41493 2.20399,3.76082 2.63773,5.72211 2.65878,12.02242 0.023,6.89414 -0.29627,8.09962 -3.78964,14.30684 -6.34154,11.26802 -16.95496,16.11382 -28.6852,13.09688 z m 172.5,-2.34071 c -7.0013,-3.63504 -11.61395,-9.3118 -13.94535,-17.16244 -1.95867,-6.59558 -1.9501,-9.17303 0.053,-15.94059 2.23436,-7.54888 9.77498,-15.08951 17.32386,-17.32386 6.72347,-1.99004 9.35168,-2.00968 15.72335,-0.1175 11.68944,3.47139 18.3788,12.37772 19.13726,25.47967 0.50449,8.71467 -0.69313,12.38667 -6.04633,18.53856 -4.881,5.60924 -11.75295,8.83946 -19.74578,9.28169 -5.71629,0.31628 -7.22342,-0.016 -12.5,-2.75553 z m -81,-71.47934 c -0.55,-0.21527 -2.65466,-0.66749 -4.67702,-1.00492 -4.55078,-0.7593 -13.02745,-8.1111 -16.07025,-13.93771 -3.1454,-6.02308 -3.05485,-17.39624 0.18974,-23.82945 10.17049,-20.16552 38.74843,-19.72565 48.44111,0.7456 2.88185,6.08655 3.45376,13.68199 1.47372,19.57207 -1.72197,5.12237 -7.83047,12.69345 -12.40367,15.37352 -3.73717,2.19014 -14.31724,4.11279 -16.95363,3.08089 z"
         id="path3006"
         inkscape:connector-curvature="0" />
    </g>
  </g>
</svg>
