<?xml version="1.0" ?><!DOCTYPE svg  PUBLIC '-//W3C//DTD SVG 1.1//EN'  'http://www.w3.org/Graphics/SVG/1.1/DTD/svg11.dtd'><svg height="48px" id="Layer_1" style="enable-background:new 0 0 48 48;" version="1.1" viewBox="0 0 48 48" width="48px" xml:space="preserve" xmlns="http://www.w3.org/2000/svg" xmlns:xlink="http://www.w3.org/1999/xlink"><path d="M34.74,16.274c0,4.603-3.732,8.333-8.334,8.333l0,0  c-4.602,0-8.333-3.73-8.333-8.333l0,0c0-4.603,3.731-8.333,8.333-8.333l0,0C31.008,7.941,34.74,11.672,34.74,16.274L34.74,16.274z" style="fill:none;stroke:#231F20;stroke-miterlimit:10;"/><polyline points="25.191,24.515 21.89,37.484 19.5,33.734 15.231,34.854   21.6,23.295 22.25,23.504 " style="fill:none;stroke:#231F20;stroke-miterlimit:10;"/><polyline points="29.271,24.104 29.301,24.094 29.34,24.084 32.92,37.055   28.98,34.984 25.83,38.074 25.641,24.875 27.01,24.584 " style="fill:none;stroke:#231F20;stroke-miterlimit:10;"/><g><path d="M25.807,13.475c0.242-0.493,0.641-0.493,0.885,0l0.158,0.32   c0.242,0.493,0.887,0.961,1.432,1.04l0.352,0.051c0.545,0.079,0.668,0.458,0.273,0.842l-0.255,0.248   c-0.394,0.384-0.64,1.142-0.548,1.684l0.061,0.351c0.094,0.542-0.229,0.775-0.716,0.52l-0.314-0.165   c-0.487-0.257-1.284-0.257-1.771,0l-0.314,0.165c-0.487,0.256-0.809,0.022-0.716-0.52l0.061-0.351   c0.093-0.542-0.153-1.3-0.547-1.684l-0.255-0.248c-0.394-0.384-0.271-0.763,0.273-0.842l0.352-0.051   c0.544-0.079,1.188-0.547,1.433-1.04L25.807,13.475z" style="fill:none;stroke:#231F20;stroke-miterlimit:10;"/></g><circle cx="26.369" cy="16.196" r="6.547" style="fill:none;stroke:#231F20;stroke-miterlimit:10;"/><line style="fill:white;stroke:#231F20;stroke-miterlimit:10;" x1="19.228" x2="22.103" y1="31.712" y2="25.899"/></svg>